<svg id="svg2" viewBox="6.582 44.468 521.452 521.283" xmlns="http://www.w3.org/2000/svg">
  <rect x="31.337" y="81.717" width="477.517" height="467.26" style="stroke: rgb(0, 0, 0); fill: rgb(255, 255, 255);"/>
  <path d="M 450.775 488.646 L 373.535 488.646 L 373.535 367.646 C 373.535 338.796 373.015 301.646 333.355 301.646 C 293.125 301.646 286.965 333.076 286.965 365.526 L 286.965 488.636 L 209.725 488.636 L 209.725 239.876 L 283.875 239.876 L 283.875 273.876 L 284.875 273.876 C 299.998 248.023 328.115 232.583 358.045 233.696 C 436.335 233.696 450.775 285.196 450.775 352.186 L 450.775 488.646 Z M 122.565 205.866 C 88.055 205.874 66.478 168.521 83.727 138.63 C 100.975 108.739 144.113 108.73 161.374 138.613 C 165.312 145.43 167.385 153.164 167.385 161.036 C 167.385 185.791 147.321 205.861 122.565 205.866 M 161.185 488.636 L 83.865 488.636 L 83.865 239.876 L 161.195 239.876 L 161.185 488.636 Z M 489.245 44.486 L 45.045 44.486 C 24.027 44.231 6.794 61.087 6.585 82.106 L 6.585 528.106 C 6.833 549.113 24.049 565.948 45.055 565.726 L 489.245 565.726 C 510.308 566.01 527.615 549.169 527.905 528.106 L 527.905 82.026 C 527.604 60.976 510.296 44.156 489.245 44.456" style="fill:#0a66c2"/>
</svg>